<svg xmlns="http://www.w3.org/2000/svg" xmlns:xlink="http://www.w3.org/1999/xlink" width="44" height="44" viewBox="0 0 44 44"><rect x=".5" y=".5" width="43" height="43" rx="11" fill="#F7F5EF" stroke="#1A1A1A" stroke-opacity=".14"/><svg x="9" y="9" width="26" height="26" viewBox="0 0 512 512"><defs><radialGradient id="a" cx="116.91" cy="358.51" r="157.58" gradientTransform="matrix(1.7866 .12361 -.17191 2.4392 -30.333 -530.41)" gradientUnits="userSpaceOnUse"><stop offset="0"/><stop offset="1" stop-color="#4c4f5c"/></radialGradient><linearGradient id="b" x1="163.39" x2="453.68" y1="520.91" y2="121.28" gradientTransform="rotate(-9.254 -409.288 646.313)scale(1.20752)" gradientUnits="userSpaceOnUse"><stop offset="0" stop-color="#23bac2"/><stop offset="1" stop-color="#367bf0"/></linearGradient></defs><ellipse cx="116.91" cy="358.51" fill="url(#a)" rx="157.58" ry="219.16" transform="matrix(.82944 -.5586 .44359 .89623 0 0)"/><path d="M93.307 208.8a221.14 154.79 71.257 0 0 31.991 135.22 221.14 154.79 71.257 0 0 227.92 108.39 221.14 154.79 71.257 0 0 65.476-159.23 221.14 154.79 71.257 0 1-65.476 149.23 221.14 154.79 71.257 0 1-227.92-108.39A221.14 154.79 71.257 0 1 93.307 208.8" opacity=".5"/><g stroke-width="1.208"><path fill="url(#b)" d="M422.27 36.85a8.4 8.4 0 0 0-4.132 1.925l-230.2 197.93c-5.433 4.671-2.917 13.562 4.158 14.691l56.78 9.072-198.44 176.58c-7.976 7.099 1.9 19.37 10.54 13.096l328.59-238.82c5.72-4.16 4.068-13.094-2.763-14.932l-44.692-12 119.28-96.584c3.744-3.032 4.183-8.582.962-12.165L429.872 39.52a8.41 8.41 0 0 0-7.61-2.68z" color="#000" style="font-feature-settings:normal;font-variant-alternates:normal;font-variant-caps:normal;font-variant-ligatures:normal;font-variant-numeric:normal;font-variant-position:normal;isolation:auto;mix-blend-mode:normal;shape-padding:0;text-decoration-color:#000;text-decoration-line:none;text-decoration-style:solid;text-indent:0;text-orientation:mixed;text-transform:none;white-space:normal"/><path fill="#fff" d="m422.26 36.844.008.006a8.4 8.4 0 0 0-4.133 1.926l-230.2 197.93c-3.07 2.203 1.166 2.486 5.441 3.288l226.7-189.3a8.4 8.4 0 0 1 4.133-1.925l-.008-.006a8.42 8.42 0 0 1 7.61 2.68l31.166 34.658c2.191-3.122 2.058-7.468-.625-10.452l-32.483-36.122a8.42 8.42 0 0 0-7.61-2.681zm-162.32 213.79-209.5 186.42c-4.762 4.238-3.159 10.317.743 13.196a10 10 0 0 1 1.199-1.278l220.56-196.26z" opacity=".2" style="font-feature-settings:normal;font-variant-alternates:normal;font-variant-caps:normal;font-variant-ligatures:normal;font-variant-numeric:normal;font-variant-position:normal;isolation:auto;mix-blend-mode:normal;shape-padding:0;text-decoration-color:#000;text-decoration-line:none;text-decoration-style:solid;text-indent:0;text-orientation:mixed;text-transform:none;white-space:normal"/><path d="M461.03 74.182a8.4 8.4 0 0 1-1.587 1.714l-129.85 105.14 12.511 3.36 119.28-96.583c3.744-3.032 4.183-8.583.962-12.166zm-71.597 123.45a8.6 8.6 0 0 1-1.817 1.78l-328.59 238.82c-3.483 2.529-7.164 2.042-9.798.098-5.636 7.177 3.598 17.732 11.739 11.82l328.59-238.82c4.887-3.554 4.38-10.576-.124-13.698m-202.77 40.464c-3.642 4.854-.997 12.278 5.432 13.304l56.779 9.073 11.059-9.84-69.78-11.15a8.4 8.4 0 0 1-3.49-1.386z" opacity=".3" style="font-feature-settings:normal;font-variant-alternates:normal;font-variant-caps:normal;font-variant-ligatures:normal;font-variant-numeric:normal;font-variant-position:normal;isolation:auto;mix-blend-mode:normal;shape-padding:0;text-decoration-color:#000;text-decoration-line:none;text-decoration-style:solid;text-indent:0;text-orientation:mixed;text-transform:none;white-space:normal"/></g><g stroke-width="5.111"><path d="M260.631 136.103c-35.414.013-67.782 20.03-83.617 51.707l16.768 8.383a74.81 74.81 0 0 1 66.848-41.387 74.81 74.81 0 0 1 66.885 41.369l16.658-8.328c-15.81-31.668-48.146-51.696-83.54-51.744zm-.002 37.406a56.11 56.11 0 0 0-50.172 31.031l16.748 8.365a37.4 37.4 0 0 1 33.424-20.693 37.4 37.4 0 0 1 33.443 20.676l16.676-8.33a56.11 56.11 0 0 0-50.119-31.049m-.134 36.93c-9.812 0-15.945 6.338-15.945 16.15s6.133 15.943 15.945 15.943 16.148-6.131 16.148-15.943-6.337-16.15-16.148-16.15" opacity=".3"/><path fill="#fff" d="M260.631 130.103c-35.414.013-67.782 20.03-83.617 51.707l16.768 8.383a74.81 74.81 0 0 1 66.848-41.387 74.81 74.81 0 0 1 66.885 41.369l16.658-8.328c-15.81-31.668-48.146-51.696-83.54-51.744zm-.002 37.406a56.11 56.11 0 0 0-50.172 31.031l16.748 8.365a37.4 37.4 0 0 1 33.424-20.693 37.4 37.4 0 0 1 33.443 20.676l16.676-8.33a56.11 56.11 0 0 0-50.119-31.049m-.134 36.93c-9.812 0-15.945 6.338-15.945 16.15s6.133 15.943 15.945 15.943 16.148-6.131 16.148-15.943-6.337-16.15-16.148-16.15m-114.27 7.973-51.922 141.87h28.006l11.652-35.568h54.375l11.652 35.568h29.23l-49.264-141.87h-33.73zm159.24 0v141.87h26.37v-52.945h23.917l30.254 52.945h31.686l-35.568-58.465c16.353-7.768 26.574-22.894 26.574-42.11 0-26.165-19.216-41.292-50.287-41.292h-52.945zm-144.12 22.69 19.42 60.099h-39.043zm170.49.204h23.1c16.558 0 26.369 8.381 26.369 22.486 0 13.287-8.177 21.26-22.895 21.26h-26.574zm-84.426 19.625v99.348h25.96V254.93z"/><path d="M331.841 291.333v10h23.916l30.254 52.945h31.686l-6.084-10h-25.602l-30.254-52.945zm-197.88 17.377-11.652 35.568H97.963l-3.66 10h28.006l11.652-35.568h54.375l11.652 35.568h29.23l-3.472-10h-25.758l-11.652-35.568zm113.45 35.568v10h25.961v-10zm58.055 0v10h26.371v-10z" opacity=".3"/></g></svg></svg>